General
Complete name                   : WWE.Superstars.11.17.2011.480p.H264.AAC.MM.By.Snaw90.mp4
Format                          : MP4
Duration                        : 40mn 41s
Overall bit rate                : 1376 Kbps


Video

Format                          : AVC
Duration                        : 40mn 41s
Bit rate                        : 1242 Kbps
Width                           : 720 pixels
Height                          : 480 pixels
Display aspect ratio            : 3:2
Standard                        : NTSC
Chroma subsampling              : 4:2:0
Bit depth                       : 8 bits
Bits/(Pixel*Frame)              : 0.120
Stream size                     : 361 MiB (90%)
Language                        : English

Audio

Format                          : AAC
Duration                        : 40mn 41s
Bit rate                        : 128 Kbps
Channel(s)                      : 2 channels
Stream size                     : 37.2 MiB (9%)
Language                        : English

